<svg width="400" height="400" viewBox="0 0 200 200" xmlns="http://www.w3.org/2000/svg">
  <g fill="#333">
    <path d="M100,80 C60,40 20,60 10,90 C10,110 50,110 100,95 Z" />
    <path d="M100,80 C140,40 180,60 190,90 C190,110 150,110 100,95 Z" />
    <path d="M100,100 C70,110 30,130 40,150 C50,165 90,140 100,115 Z" />
    <path d="M100,100 C130,110 170,130 160,150 C150,165 110,140 100,115 Z" />
  </g>

  <path d="M100,50 C115,50 120,70 120,90 C120,130 115,160 100,160 C85,160 80,130 80,90 C80,70 85,50 100,50 Z" fill="#000" />
  
  <circle cx="100" cy="40" r="15" fill="#000" />
  
  <path d="M90,30 C75,10 60,15 55,25" stroke="#000" stroke-width="2" fill="none" />
  <path d="M110,30 C125,10 140,15 145,25" stroke="#000" stroke-width="2" fill="none" />

  <path d="M85,75 L60,60 L55,70" stroke="#000" stroke-width="4" stroke-linecap="round" fill="none" />
  <path d="M115,75 L140,60 L145,70" stroke="#000" stroke-width="4" stroke-linecap="round" fill="none" />

  <path d="M82,95 L65,115 L70,125" stroke="#000" stroke-width="4" stroke-linecap="round" fill="none" />
  <path d="M118,95 L135,115 L130,125" stroke="#000" stroke-width="4" stroke-linecap="round" fill="none" />

  <path d="M90,150 L85,185 L75,190" stroke="#000" stroke-width="5" stroke-linecap="round" fill="none" />
  <path d="M110,150 L115,185 L125,190" stroke="#000" stroke-width="5" stroke-linecap="round" fill="none" />
</svg>
