<svg width="400" height="400" viewBox="0 0 200 200" xmlns="http://www.w3.org/2000/svg">
  <!-- Body segments -->
  <ellipse cx="100" cy="140" rx="25" ry="35" fill="#000" /> <!-- Abdomen -->
  <ellipse cx="100" cy="95" rx="15" ry="20" fill="#000" />  <!-- Thorax -->
  <circle cx="100" cy="65" r="12" fill="#000" />          <!-- Head -->

  <!-- Antennae -->
  <path d="M92,58 C80,40 65,45 60,55" stroke="#000" stroke-width="2" fill="none" />
  <path d="M108,58 C120,40 135,45 140,55" stroke="#000" stroke-width="2" fill="none" />

  <!-- Legs - Left side -->
  <path d="M88,90 L60,80 L55,95" stroke="#000" stroke-width="3" stroke-linecap="round" fill="none" />
  <path d="M85,100 L55,105 L50,120" stroke="#000" stroke-width="3" stroke-linecap="round" fill="none" />
  <path d="M88,115 L60,135 L55,150" stroke="#000" stroke-width="3" stroke-linecap="round" fill="none" />

  <!-- Legs - Right side -->
  <path d="M112,90 L140,80 L145,95" stroke="#000" stroke-width="3" stroke-linecap="round" fill="none" />
  <path d="M115,100 L145,105 L150,120" stroke="#000" stroke-width="3" stroke-linecap="round" fill="none" />
  <path d="M112,115 L140,135 L145,150" stroke="#000" stroke-width="3" stroke-linecap="round" fill="none" />
</svg>
